<svg xmlns="http://www.w3.org/2000/svg" data-name="Layer 1" viewBox="0 0 32 32"><path fill="#8b8891" d="M13.5,16.14432a.49971.49971,0,0,1-.5-.5V9.74588a.5.5,0,0,1,1,0v5.89844A.49971.49971,0,0,1,13.5,16.14432Z"/><path fill="#8b8891" d="M16.5,10.24588h-6a.5.5,0,1,1,0-1h6a.5.5,0,1,1,0,1Z"/><path fill="#afaeb3" d="M9.5,28.7463h9a2,2,0,0,1,2,2v1a0,0,0,0,1,0,0H7.5a0,0,0,0,1,0,0v-1a2,2,0,0,1,2-2Z"/><polygon fill="#8b8891" points="15.5 28.746 12.5 28.746 10.5 19.746 17.5 19.746 15.5 28.746"/><path fill="#8b8891" d="M28.5,19.24588a.49971.49971,0,0,1-.5-.5V2.7537a1.50038,1.50038,0,0,0-1.5-1.5h-.00537l-7.65918.0293a3.479,3.479,0,0,0-.57812.0498l-3.4917.55371a.50028.50028,0,0,1-.15625-.98828L18.09326.34647A4.48617,4.48617,0,0,1,18.83105.283L26.49072.2537H26.5a2.50064,2.50064,0,0,1,2.5,2.5V18.74588A.49971.49971,0,0,1,28.5,19.24588Z"/><path fill="#fdd402" d="M12.29289,1.007a2,2,0,0,1,2.82842,0h0a2,2,0,0,1,0,2.82842Z"/><path fill="#2e99d4" d="M17.4697,15.644H8.82315a1.018,1.018,0,0,1-.97881-.73832L4.391,2.819A1.96716,1.96716,0,0,0,2.49956,1.39229h0A1.96716,1.96716,0,0,0,.60416,3.88594l3.983,14.33888a2.036,2.036,0,0,0,1.96168,1.491H17.4697a5.08988,5.08988,0,0,1,1.49686.22508l9.984,3.072a1.94592,1.94592,0,0,0,2.51819-1.85987h0A1.94592,1.94592,0,0,0,30.0951,19.2932L18.96656,15.869A5.08988,5.08988,0,0,0,17.4697,15.644Z"/></svg>