<svg xmlns="http://www.w3.org/2000/svg" data-name="Layer 1" viewBox="0 0 32 32"><path fill="#8b8891" d="M23.5,16.25H8.5l.46-9.52a6.68155,6.68155,0,0,1,.6-2.28A7.03994,7.03994,0,0,1,20.78,2.12a6.77614,6.77614,0,0,1,1.28,1.59,7.041,7.041,0,0,1,.98,3.02Z"/><path fill="#dfe1f0" d="M27.5,21.25v7a2.996,2.996,0,0,1-3,3H7.5a2.996,2.996,0,0,1-3-3v-7A7.00255,7.00255,0,0,1,10,14.41a5.47156,5.47156,0,0,1,1-.13,4.07849,4.07849,0,0,1,.5-.03h9a4.07849,4.07849,0,0,1,.5.03,5.47156,5.47156,0,0,1,1,.13A7.00255,7.00255,0,0,1,27.5,21.25Z"/><path fill="#afafb2" d="M22 14.41v7.84a.5.5 0 0 1-1 0V14.28A5.47156 5.47156 0 0 1 22 14.41zM11 14.28v5.97a.5.5 0 0 1-1 0V14.41A5.47156 5.47156 0 0 1 11 14.28z"/><path fill="#8b8891" d="M12.5,26.75h-1a.5.5,0,0,1,0-1H12V22.28857a1.5,1.5,0,0,0-3,0V25.75h.5a.5.5,0,0,1,0,1h-1a.49971.49971,0,0,1-.5-.5V22.28857a2.5,2.5,0,0,1,5,0V26.25A.49971.49971,0,0,1,12.5,26.75Z"/><path fill="#afafb2" d="M16.5,17.75v13.5h-1V17.75a.5.5,0,0,1,1,0Z"/><path fill="#fcc37a" d="M18.5,11.25v3.638a1,1,0,0,1-.23178.64018l-1.5,1.8a1,1,0,0,1-1.53644,0l-1.5-1.8A1,1,0,0,1,13.5,14.888V11.25Z"/><path fill="#ffd8a9" d="M20.78,5.58l-.29,2.59-.11,1a3.57278,3.57278,0,0,1-1.78,2.71l-1.42.81a2.36771,2.36771,0,0,1-2.36,0l-1.42-.81a3.57278,3.57278,0,0,1-1.78-2.71l-.11-.97-.29-2.62L16.15,3.68Z"/><path fill="#8b8891" d="M22.06,3.71,20.78,5.58a4.48858,4.48858,0,0,1-2.54-.21,4.4741,4.4741,0,0,1-2.09-1.69,4.12707,4.12707,0,0,1-2.84,2.18,3.70475,3.70475,0,0,1-2.09-.28L9.56,4.45A7.03994,7.03994,0,0,1,20.78,2.12,6.77614,6.77614,0,0,1,22.06,3.71Z"/><path fill="#fff" d="M20.49,8.17l-.11,1a3.57278,3.57278,0,0,1-1.78,2.71l-1.42.81a2.36771,2.36771,0,0,1-2.36,0l-1.42-.81a3.57278,3.57278,0,0,1-1.78-2.71l-.11-.97.11.02A18.15969,18.15969,0,0,0,16,8.75a18.50871,18.50871,0,0,0,4.34-.52Z"/><circle cx="21.5" cy="24.25" r="2" fill="#8b8891"/></svg>