<svg xmlns="http://www.w3.org/2000/svg" xmlns:xlink="http://www.w3.org/1999/xlink" viewBox="0 0 64 64"><defs><linearGradient id="a" x1="10.07" x2="5.25" y1="44.81" y2="50.17" gradientUnits="userSpaceOnUse"><stop offset="0" stop-color="#65d0f7"/><stop offset="1" stop-color="#2ca5ff"/></linearGradient><linearGradient id="b" x1="51.89" x2="57.55" y1="22.3" y2="16.64" gradientTransform="rotate(45 54.717 19.465)" gradientUnits="userSpaceOnUse"><stop offset="0" stop-color="#d6d6d6"/><stop offset="1" stop-color="#a1a1a1"/></linearGradient><linearGradient id="c" x1="46.19" x2="7.41" y1="14.66" y2="45.94" xlink:href="#a"/><linearGradient id="d" x1="43.05" x2="51.54" y1="16.29" y2="7.8" gradientUnits="userSpaceOnUse"><stop offset="0" stop-color="#ededed"/><stop offset="1" stop-color="#d0d0d0"/></linearGradient><linearGradient id="e" x1="2.76" x2="62.5" y1="32.72" y2="32.72" gradientUnits="userSpaceOnUse"><stop offset="0" stop-color="#000406"/><stop offset="1" stop-color="#001521"/></linearGradient></defs><g data-name="Layer 2"><path fill="url(#a)" d="M12.11,47,7.69,43a1,1,0,0,0-1.33,0,4,4,0,1,0,5.9,5.32A1,1,0,0,0,12.11,47Z"/><rect width="8" height="6" x="50.72" y="16.47" fill="url(#b)" rx="1" transform="rotate(-45 54.713 19.467)"/><path fill="url(#c)" d="M48.35,20.18c-5.83,5.83-7.69,7.7-7.91,7.89h0L17.15,47.68a6,6,0,0,1-8.1-.35L7,45.24a6,6,0,0,1,1.19-9.41L32.4,21.5c1.57-.94,2.15-1.62,8.88-8.4a1,1,0,0,1,1.42,0l5.65,5.66A1,1,0,0,1,48.35,20.18Z"/><path fill="url(#d)" d="M57.55,13.81l-9.9-9.9a4.1,4.1,0,0,0-5.66,0L39.16,6.74a4,4,0,0,0,0,5.66l9.9,9.9a1,1,0,0,0,1.42,0l7.07-7.07A1,1,0,0,0,57.55,13.81Z"/></g><path fill="url(#e)" d="M59,19.47a1,1,0,0,0,0-1.42l-2.12-2.12.71-.7a1,1,0,0,0,0-1.42l-9.9-9.9a4.1,4.1,0,0,0-5.66,0L39.16,6.74a4,4,0,0,0,0,5.66l1.42,1.41c-9.94,9.72-1.11,3.35-32.44,22a6,6,0,0,0-2.35,7.78,4,4,0,0,0-.38,4.13A8.25,8.25,0,0,0,16.25,60.18l10.37-8.49a7,7,0,0,1,9.74.82l8.89,10.15,1.5-1.32L37.87,51.19a9,9,0,0,0-12.52-1L15,58.63a6.25,6.25,0,0,1-8.27-9.36,4,4,0,0,0,5.05-.39,6.08,6.08,0,0,0,1.53.22,6,6,0,0,0,3.86-1.42c28.39-23.94,20.71-17,30.5-26.8,1.21,1.11,1.44,1.71,2.12,1.71s.85-.51,1.41-1C53.16,23.45,53.31,24,54,24s.83-.52,2.12-1.7l4.95,4.95,1.42-1.42-5-4.95ZM7.11,45.39a21.1,21.1,0,0,0,2.58,2.47A2,2,0,0,1,7.11,45.39Zm8.76.76a4,4,0,0,1-5.41-.23L8.37,43.83a4,4,0,0,1,.79-6.28C34.68,22.43,33.48,23.28,34.71,22.34L39,26.66ZM46.23,19.47l-5.79,5.78L36.2,21,42,15.23ZM40.58,11a2,2,0,0,1,0-2.83L43.4,5.33a2,2,0,0,1,2.83,0l9.19,9.19-5.65,5.66ZM54,21.59,52.6,20.18l2.82-2.83,1.42,1.41Z" data-name="Layer 3"/></svg>