<svg xmlns="http://www.w3.org/2000/svg" id="Layer_1" enable-background="new 0 0 64 64" viewBox="0 0 64 64"><path fill="#4e5292" d="M29.27,28.28c-1.49-0.96-2.37-2.59-2.37-4.36v-1.27h1.4c0.82,0,1.48-0.66,1.48-1.48v-2.06
		c0-0.82-0.66-1.48-1.48-1.48H10.01c-0.81,0-1.48,0.66-1.48,1.48v2.06c0,0.82,0.67,1.48,1.48,1.48h1.4v1.27
		c0,1.77-0.89,3.4-2.37,4.36c-1.77,1.16-2.83,3.1-2.83,5.21v27.32c0,1.75,1.44,3.19,3.2,3.19h19.51c1.75,0,3.18-1.44,3.18-3.19
		V33.49C32.1,31.38,31.04,29.44,29.27,28.28z M10.01,21.66c-0.27,0-0.49-0.22-0.49-0.49v-2.06c0-0.28,0.23-0.49,0.49-0.49H28.3
		c0.28,0,0.49,0.22,0.49,0.49v2.06c0,0.28-0.22,0.49-0.49,0.49H10.01z M7.2,33.98h15.66v23.97H7.2V33.98z M31.11,60.81
		c0,1.21-0.98,2.21-2.2,2.21H9.41c-1.22,0-2.22-0.99-2.22-2.21v-1.88h16.15c0.28,0,0.49-0.22,0.49-0.49V33.49
		c0-0.28-0.22-0.49-0.49-0.49H7.23c0.16-1.58,1-3.01,2.34-3.89c1.77-1.14,2.83-3.08,2.83-5.19v-1.27h13.52v1.27
		c0,2.11,1.05,4.05,2.82,5.18c1.49,0.98,2.38,2.62,2.38,4.39V60.81z"/><path fill="#ec9aad" d="M28.3,18.62H10.01c-0.27,0-0.49,0.22-0.49,0.49v2.06c0,0.28,0.23,0.49,0.49,0.49H28.3
		c0.28,0,0.49-0.22,0.49-0.49v-2.06C28.79,18.84,28.57,18.62,28.3,18.62z M11.7,20.73c0,0.27-0.22,0.49-0.49,0.49
		c-0.28,0-0.49-0.23-0.49-0.49v-1.17c0-0.28,0.22-0.49,0.49-0.49c0.28,0,0.49,0.22,0.49,0.49V20.73z M14.88,20.73
		c0,0.27-0.22,0.49-0.49,0.49c-0.27,0-0.49-0.23-0.49-0.49v-1.17c0-0.28,0.23-0.49,0.49-0.49c0.28,0,0.49,0.22,0.49,0.49V20.73z
		 M18.06,20.73c0,0.27-0.22,0.49-0.49,0.49c-0.27,0-0.49-0.23-0.49-0.49v-1.17c0-0.28,0.23-0.49,0.49-0.49
		c0.28,0,0.49,0.22,0.49,0.49V20.73z M21.24,20.73c0,0.27-0.22,0.49-0.49,0.49c-0.27,0-0.49-0.23-0.49-0.49v-1.17
		c0-0.28,0.23-0.49,0.49-0.49c0.28,0,0.49,0.22,0.49,0.49V20.73z M24.43,20.73c0,0.27-0.23,0.49-0.49,0.49
		c-0.28,0-0.49-0.23-0.49-0.49v-1.17c0-0.28,0.22-0.49,0.49-0.49c0.27,0,0.49,0.22,0.49,0.49V20.73z M27.61,20.73
		c0,0.27-0.23,0.49-0.49,0.49c-0.28,0-0.49-0.23-0.49-0.49v-1.17c0-0.28,0.22-0.49,0.49-0.49c0.27,0,0.49,0.22,0.49,0.49V20.73z"/><path fill="#f1b8c7" d="M28.79,19.11v2.06c0,0.28-0.22,0.49-0.49,0.49h-1.59c0.22,0,0.38-0.19,0.4-0.44c0.27,0,0.49-0.23,0.49-0.49
		v-1.17c0-0.28-0.23-0.49-0.49-0.49c-0.02-0.26-0.19-0.44-0.4-0.44h1.59C28.57,18.62,28.79,18.84,28.79,19.11z"/><path fill="#d88b9e" d="M11.6,21.66h-1.59c-0.27,0-0.49-0.22-0.49-0.49v-2.06c0-0.28,0.23-0.49,0.49-0.49h1.59
		c-0.21,0-0.38,0.19-0.39,0.44H11.2c-0.28,0.01-0.48,0.22-0.48,0.49v1.17c0,0.27,0.21,0.48,0.48,0.49h0.01
		C11.21,21.47,11.39,21.66,11.6,21.66z"/><path fill="#f0ca6c" d="M7.2,33.98v23.97h15.66V33.98H7.2z M14.89,51.88c-2.99,0-5.44-2.66-5.44-5.92c0-3.27,2.44-5.92,5.44-5.92
		c3,0,5.44,2.65,5.44,5.92C20.33,49.22,17.89,51.88,14.89,51.88z"/><path fill="#ccd5dd" d="M31.11,33.49v27.32c0,1.21-0.98,2.21-2.2,2.21H9.41c-1.22,0-2.22-0.99-2.22-2.21v-1.88h16.15
		c0.28,0,0.49-0.22,0.49-0.49V33.49c0-0.28-0.22-0.49-0.49-0.49H7.23c0.16-1.58,1-3.01,2.34-3.89c1.77-1.14,2.83-3.08,2.83-5.19
		v-1.27h13.52v1.27c0,2.11,1.05,4.05,2.82,5.18C30.22,30.08,31.11,31.71,31.11,33.49z"/><path fill="#e1ba62" d="M9.52,45.07c-0.05,0.3-0.07,0.59-0.07,0.9c0,0.31,0.02,0.6,0.07,0.9v11.09H7.2V33.98h2.32V45.07z"/><path fill="#d8dfe6" d="M31.11,33.49v27.32c0,1.21-0.98,2.21-2.2,2.21h-1.9c0.97,0,1.77-0.99,1.77-2.21V33.49
		c0-1.77-0.72-3.41-1.92-4.39c-1.42-1.13-2.26-3.07-2.26-5.18v-1.27h1.31v1.27c0,2.11,1.05,4.05,2.82,5.18
		C30.22,30.08,31.11,31.71,31.11,33.49z"/><path fill="#b5c3cc" d="M13.71 22.65v1.27c0 2.11-.85 4.05-2.27 5.19-1.07.88-1.76 2.31-1.89 3.89H7.23c.16-1.58 1-3.01 2.34-3.89 1.77-1.14 2.83-3.08 2.83-5.19v-1.27H13.71zM11.3 63.02H9.41c-1.22 0-2.22-.99-2.22-2.21v-1.88h2.32v1.88C9.52 62.02 10.32 63.02 11.3 63.02z"/><path fill="#4e5292" d="M14.89,40.04c-2.99,0-5.44,2.65-5.44,5.92c0,3.26,2.44,5.92,5.44,5.92c3,0,5.44-2.66,5.44-5.92
		C20.33,42.69,17.89,40.04,14.89,40.04z M14.89,50.89c-2.45,0-4.45-2.22-4.45-4.93c0-2.72,2-4.93,4.45-4.93
		c2.46,0,4.46,2.22,4.46,4.93C19.35,48.68,17.35,50.89,14.89,50.89z"/><path fill="#a5d179" d="M14.89,41.03c-2.45,0-4.45,2.22-4.45,4.93c0,2.72,2,4.93,4.45,4.93c2.46,0,4.46-2.22,4.46-4.93
		C19.35,43.24,17.35,41.03,14.89,41.03z M17.9,44.29l-3.65,4.01c-0.1,0.1-0.23,0.16-0.36,0.16s-0.28-0.06-0.36-0.16l-1.63-1.79
		c-0.18-0.2-0.17-0.51,0.03-0.69c0.21-0.19,0.52-0.18,0.7,0.03l1.27,1.39l3.29-3.6c0.18-0.21,0.49-0.22,0.69-0.04
		C18.07,43.78,18.08,44.09,17.9,44.29z"/><path fill="#94c36b" d="M13.54,50.66c-1.79-0.63-3.1-2.5-3.1-4.7c0-2.2,1.31-4.07,3.1-4.7c-1.24,0.63-2.14,2.5-2.14,4.7
		C11.4,48.16,12.3,50.03,13.54,50.66z"/><path fill="#bfdda0" d="M19.35,45.96c0,2.72-2,4.93-4.46,4.93c-0.08,0-0.17,0-0.25-0.02c1.61-0.13,2.9-2.28,2.9-4.91
		c0-0.4-0.03-0.8-0.09-1.18l0.44-0.49c0.18-0.2,0.17-0.51-0.04-0.7c-0.2-0.18-0.51-0.17-0.69,0.04c-0.49-1.48-1.44-2.5-2.53-2.58
		c0.08-0.02,0.17-0.02,0.25-0.02C17.35,41.03,19.35,43.24,19.35,45.96z"/><path fill="#4e5292" d="M57.29,48.81h-1.92v-6.83c0,0,0.01-0.01,0.01-0.02l-0.01-0.01v-2.59c0-0.01,0.01-0.01,0.01-0.02
		c0-0.01-0.01-0.01-0.01-0.02V18.88c0-1.52-1.35-2.74-3-2.74h-1.01v-3c0-0.27-0.22-0.49-0.49-0.49h-3.07V0.49
		C47.79,0.22,47.58,0,47.3,0c-0.28,0-0.49,0.22-0.49,0.49v12.15h-3.09c-0.28,0-0.49,0.23-0.49,0.49v3h-1
		c-1.66,0-3.01,1.22-3.01,2.74v16.35c0,0.01,0,0.01,0,0.01v13.57H37.3c-0.28,0-0.49,0.22-0.49,0.49v2.76c0,0.27,0.22,0.49,0.49,0.49
		h8.09v8.4h-7.03c-0.28,0-0.49,0.22-0.49,0.49v2.07c0,0.27,0.22,0.49,0.49,0.49h17.86c0.28,0,0.49-0.23,0.49-0.49v-2.07
		c0-0.28-0.22-0.49-0.49-0.49h-7.01v-8.4h8.08c0.27,0,0.49-0.23,0.49-0.49V49.3C57.79,49.02,57.56,48.81,57.29,48.81z M44.21,13.63
		h6.16v2.51h-6.16V13.63z M40.19,35.73h3.82c0.27,0,0.49-0.23,0.49-0.49c0-0.28-0.23-0.49-0.49-0.49h-3.82v-3.38h2.47
		c0.27,0,0.49-0.22,0.49-0.49c0-0.28-0.23-0.49-0.49-0.49h-2.47v-3.38h3.82c0.27,0,0.49-0.22,0.49-0.49c0-0.27-0.23-0.49-0.49-0.49
		h-3.82v-3.38h2.47c0.27,0,0.49-0.22,0.49-0.49c0-0.27-0.23-0.49-0.49-0.49h-2.47v-2.79c0-0.96,0.91-1.75,2.03-1.75h10.15
		c1.11,0,2.02,0.79,2.02,1.75v19.97h-14.2V35.73z M40.19,39.83h14.2v1.63h-14.2V39.83z M54.39,42.45v6.36h-5.18v-6.36H54.39z
		 M48.23,42.45v6.36h-1.85v-6.36H48.23z M40.19,42.45h5.2v6.36h-5.2V42.45z M55.73,61.93v1.08H38.85v-1.08H55.73z M46.38,60.95v-8.4
		h1.85v8.4H46.38z M56.8,51.56h-8.04c-0.01,0-0.03-0.01-0.04-0.01c-0.02,0-0.03,0.01-0.05,0.01h-2.75c-0.01,0-0.03-0.01-0.04-0.01
		c-0.02,0-0.03,0.01-0.04,0.01h-8.05v-1.77H56.8V51.56z"/><rect width="16.88" height="1.08" x="38.85" y="61.93" fill="#b5c3cc"/><rect width="1.85" height="6.36" x="46.38" y="42.45" fill="#ccd5dd"/><rect width="1.85" height="8.4" x="46.38" y="52.55" fill="#ccd5dd"/><rect width="6.16" height="2.51" x="44.21" y="13.63" fill="#a7d6e7"/><rect width="14.2" height="1.63" x="40.19" y="39.83" fill="#b5c3cc"/><path fill="#a7d6e7" d="M56.8,49.79v1.77h-8.04c-0.01,0-0.03-0.01-0.04-0.01c-0.02,0-0.03,0.01-0.05,0.01h-2.75
		c-0.01,0-0.03-0.01-0.04-0.01c-0.02,0-0.03,0.01-0.04,0.01h-8.05v-1.77H56.8z"/><rect width="5.2" height="6.36" x="40.19" y="42.45" fill="#bbe0f6"/><rect width="5.18" height="6.36" x="49.21" y="42.45" fill="#bbe0f6"/><path fill="#bbe0f6" d="M54.39,18.88v19.97h-14.2v-3.11h3.82c0.27,0,0.49-0.23,0.49-0.49c0-0.28-0.23-0.49-0.49-0.49h-3.82v-3.38
		h2.47c0.27,0,0.49-0.22,0.49-0.49c0-0.28-0.23-0.49-0.49-0.49h-2.47v-3.38h3.82c0.27,0,0.49-0.22,0.49-0.49
		c0-0.27-0.23-0.49-0.49-0.49h-3.82v-3.38h2.47c0.27,0,0.49-0.22,0.49-0.49c0-0.27-0.23-0.49-0.49-0.49h-2.47v-2.79
		c0-0.96,0.91-1.75,2.03-1.75h10.15C53.48,17.12,54.39,17.91,54.39,18.88z"/><rect width="2.03" height="6.36" x="40.19" y="42.45" fill="#a7d6e7"/><rect width="2.03" height="3.38" x="40.19" y="31.37" fill="#a7d6e7"/><rect width="2.03" height="3.38" x="40.19" y="22.65" fill="#a7d6e7"/><rect width="2.03" height="3.38" x="40.19" y="27.01" fill="#a7d6e7"/><rect width="2.03" height="3.11" x="40.19" y="35.73" fill="#a7d6e7"/><path fill="#a7d6e7" d="M43.67,17.12c-0.8,0-1.45,0.79-1.45,1.75v2.79h-2.03v-2.79c0-0.96,0.91-1.75,2.03-1.75H43.67z"/><rect width="2.03" height="6.36" x="52.36" y="42.45" fill="#cae5f7"/><path fill="#cae5f7" d="M54.39,18.88v19.97h-2.03V18.88c0-0.96-0.65-1.75-1.44-1.75h1.45C53.48,17.12,54.39,17.91,54.39,18.88z"/><path fill="#4e5292" d="M17.9 44.29l-3.65 4.01c-.1.1-.23.16-.36.16s-.28-.06-.36-.16l-1.63-1.79c-.18-.2-.17-.51.03-.69.21-.19.52-.18.7.03l1.27 1.39 3.29-3.6c.18-.21.49-.22.69-.04C18.07 43.78 18.08 44.09 17.9 44.29zM11.7 19.55v1.17c0 .27-.22.49-.49.49-.28 0-.49-.23-.49-.49v-1.17c0-.28.22-.49.49-.49C11.48 19.06 11.7 19.28 11.7 19.55zM14.88 19.55v1.17c0 .27-.22.49-.49.49-.27 0-.49-.23-.49-.49v-1.17c0-.28.23-.49.49-.49C14.66 19.06 14.88 19.28 14.88 19.55zM18.06 19.55v1.17c0 .27-.22.49-.49.49-.27 0-.49-.23-.49-.49v-1.17c0-.28.23-.49.49-.49C17.84 19.06 18.06 19.28 18.06 19.55zM21.24 19.55v1.17c0 .27-.22.49-.49.49-.27 0-.49-.23-.49-.49v-1.17c0-.28.23-.49.49-.49C21.02 19.06 21.24 19.28 21.24 19.55zM24.43 19.55v1.17c0 .27-.23.49-.49.49-.28 0-.49-.23-.49-.49v-1.17c0-.28.22-.49.49-.49C24.2 19.06 24.43 19.28 24.43 19.55zM27.61 19.55v1.17c0 .27-.23.49-.49.49-.28 0-.49-.23-.49-.49v-1.17c0-.28.22-.49.49-.49C27.38 19.06 27.61 19.28 27.61 19.55z"/></svg>