<svg xmlns="http://www.w3.org/2000/svg" data-name="Layer 1" viewBox="0 0 32 32"><path fill="#afaeb3" d="M9.5,28.50628h9a2,2,0,0,1,2,2v1a0,0,0,0,1,0,0H7.5a0,0,0,0,1,0,0v-1a2,2,0,0,1,2-2Z"/><polygon fill="#3c3b41" points="15.5 28.506 12.5 28.506 10.5 19.506 17.5 19.506 15.5 28.506"/><path fill="#fdd402" d="M12.58579,1.0795a2,2,0,0,1,2.82842,0h0a2,2,0,0,1,0,2.82842Z"/><path fill="#2e99d4" d="M17.4697,15.40394H8.82315a1.018,1.018,0,0,1-.97881-.73832L4.391,2.579A1.96716,1.96716,0,0,0,2.49956,1.15227h0A1.96716,1.96716,0,0,0,.60416,3.64592l3.983,14.33888a2.036,2.036,0,0,0,1.96168,1.491H17.4697a5.08988,5.08988,0,0,1,1.49686.22508l9.984,3.072a1.94592,1.94592,0,0,0,2.51819-1.85987h0a1.94592,1.94592,0,0,0-1.37365-1.85987L18.96656,15.629A5.08988,5.08988,0,0,0,17.4697,15.40394Z"/><path d="M30.24219,18.5752,29,18.193V2.51367a2.50064,2.50064,0,0,0-2.5-2.5h-.00928L18.83105.043a4.5169,4.5169,0,0,0-.74414.06445L15.5199.5481a2.49457,2.49457,0,0,0-3.31775.17749.49982.49982,0,0,0,0,.707l2.82813,2.8291a.49982.49982,0,0,0,.707,0,2.497,2.497,0,0,0,.49042-2.82l2.0296-.34894a3.479,3.479,0,0,1,.57813-.0498l7.65918-.0293H26.5a1.50038,1.50038,0,0,1,1.5,1.5v15.3717l-8.88623-2.734a5.57106,5.57106,0,0,0-1.644-.24707H14V10.00586h2.5a.5.5,0,0,0,0-1h-6a.5.5,0,0,0,0,1H13V14.9043H8.82324a.51973.51973,0,0,1-.498-.376L4.87207,2.44141A2.47852,2.47852,0,0,0,2.49951.65234,2.46748,2.46748,0,0,0,.12207,3.7793l3.9834,14.33887a2.543,2.543,0,0,0,2.44336,1.85742H10.092l1.78448,8.03027H9.5a2.50263,2.50263,0,0,0-2.5,2.5v1a.49971.49971,0,0,0,.5.5h13a.49971.49971,0,0,0,.5-.5v-1a2.50263,2.50263,0,0,0-2.5-2.5H16.12347l1.77734-7.998a4.58865,4.58865,0,0,1,.919.1709L28.80322,23.25a2.46816,2.46816,0,0,0,.728.11133,2.44735,2.44735,0,0,0,.71094-4.78613ZM15.32373,3.14063l-2.00049-2.001a1.50018,1.50018,0,0,1,2.14648,1.35449A1.4888,1.4888,0,0,1,15.32373,3.14063ZM20,30.50586v.5H8v-.5a1.50164,1.50164,0,0,1,1.5-1.5h9A1.50164,1.50164,0,0,1,20,30.50586Zm-4.90088-2.5H12.90088l-1.77734-8h5.75293Zm15.28271-5.92969a1.43437,1.43437,0,0,1-1.28418.21875l-9.98389-3.07129a5.55933,5.55933,0,0,0-1.644-.248H6.54883a1.54,1.54,0,0,1-1.47949-1.125L1.08594,3.51172A1.4668,1.4668,0,0,1,2.49951,1.65234,1.47261,1.47261,0,0,1,3.91016,2.7168L7.36377,14.80371A1.52432,1.52432,0,0,0,8.82324,15.9043h8.64648a4.60283,4.60283,0,0,1,1.3501.20215l11.12793,3.42383a1.44651,1.44651,0,0,1,.43408,2.5459Z"/></svg>