<svg xmlns="http://www.w3.org/2000/svg" id="Layer_6" enable-background="new 0 0 64 64" viewBox="0 0 64 64"><path fill="#fff" d="M44,25v3c0,3.64-2.43,6.71-5.75,7.68C37.54,35.89,36.78,36,36,36h-8c-0.78,0-1.54-0.11-2.25-0.32
		C22.43,34.71,20,31.64,20,28v-3c0-0.03,0-0.07,0-0.1c0.04-0.72,0.45-1.33,1.05-1.66C21.33,23.09,21.66,23,22,23l10-1l10,1
		c1.07,0,1.94,0.84,2,1.9C44,24.93,44,24.97,44,25z"/><path fill="#dad4d4" d="M44,24.9V28c0,3.64-2.43,6.71-5.75,7.68C37.54,35.89,36.78,36,36,36h-4.08V22.01L32,22l10,1
		C43.07,23,43.94,23.84,44,24.9z"/><path fill="#dfdad4" d="M48,43.77c6.14,1.05,11,3.2,11,9.96V63H39l3-20l0.02-0.08c0.23,0.09,0.48,0.14,0.74,0.17
		C44.55,43.28,46.32,43.49,48,43.77z M48,50c-1.66,0-3,1.34-3,3s1.34,3,3,3s3-1.34,3-3S49.66,50,48,50z"/><path fill="#b7b1ab" d="M59,53.73c0-6.76-4.86-8.91-11-9.96c-1.68-0.28-3.45-0.49-5.24-0.68c-0.26-0.03-0.51-0.08-0.74-0.17L42,43
		l-1.084,7.227c1.622,4.047,2.469,8.413,2.397,12.773H59V53.73z M48,56c-1.66,0-3-1.34-3-3c0-1.66,1.34-3,3-3s3,1.34,3,3
		C51,54.66,49.66,56,48,56z"/><path fill="#b9deef" d="M40.27 41.29c.33.78.97 1.36 1.75 1.63L42 43l-7 2-3-5 7.08-2.02L40.27 41.29zM23.73 41.29l1.19-3.31L32 40l-3 5-7-2-.02-.08C22.76 42.65 23.4 42.07 23.73 41.29z"/><polygon fill="#9ac2d8" points="42 43 39 63 35 63 33.98 45.68 35 45"/><polygon fill="#9ac2d8" points="30.02 45.68 29 63 25 63 22 43 29 45"/><path fill="#73bde5" d="M29.88 48.05L24.39 46c1.35 5.5.9 11.63 3.17 17H25l-3-20 1.6.46L29 45l1.02.68L29.88 48.05zM40.27 41.29l-1.19-3.32L39 38l-5.005 1.43c1.395 1.458 2.659 3.064 3.779 4.777L35 45l-1.02.68.14 2.36 4.919-1.734c.703 1.264 1.336 2.572 1.876 3.921L42 43l.02-.08C41.24 42.65 40.6 42.07 40.27 41.29z"/><circle cx="48" cy="53" r="3" fill="#5f605a"/><polygon fill="#828282" points="33.98 45.68 35 63 29 63 30.02 45.68 32 47"/><path fill="#dfdad4" d="M22,43l-0.02-0.08c-0.23,0.09-0.48,0.14-0.74,0.17c-0.8,0.09-1.59,0.17-2.37,0.27
		c-1.79,0.22-3.53,0.49-5.13,0.87C8.7,45.44,5,47.83,5,53.73V63h20L22,43z"/><polygon fill="#999" points="32 40 35 45 33.98 45.68 32 47 30.02 45.68 29 45"/><path fill="#ffd5c2" d="M39.08 37.98L32 40l-7.08-2.02.3-.82.53-1.48C26.46 35.89 27.22 36 28 36h8c.78 0 1.54-.11 2.25-.32l.46 1.27L39.08 37.98zM46 21v2.5c0 .83-.67 1.5-1.5 1.5-.18 0-.34-.03-.5-.1-.04-.7-.43-1.3-1-1.63V23v-3.5c0-.83.67-1.5 1.5-1.5s1.5.67 1.5 1.5V21zM21 19.5V23v.27c-.57.33-.96.93-1 1.63-.16.07-.32.1-.5.1-.83 0-1.5-.67-1.5-1.5V21v-1.5c0-.83.67-1.5 1.5-1.5S21 18.67 21 19.5zM42 23l-10-1-10 1c-.36 0-.71.1-1 .27V23v-3.5-5.59c0 0 5-1.91 7-5.91 0 0 6 5.82 15 5.91v5.59V23v.27C42.71 23.1 42.36 23 42 23z"/><path fill="#9e7059" d="M43,13.91C34,13.82,28,8,28,8c-2,4-7,5.91-7,5.91v5.59c0-0.83-0.67-1.5-1.5-1.5S18,18.67,18,19.5V13
		c0-6.6,5.4-12,12-12h4c6.6,0,12,5.4,12,12v6.5c0-0.83-0.67-1.5-1.5-1.5S43,18.67,43,19.5V13.91z"/><path fill="#995b3f" d="M46,19.5V13c0-6.6-5.4-12-12-12h-2.936c7.625,2.994,11.881,9.263,13.814,17.054
		C45.524,18.222,46,18.802,46,19.5z"/><path fill="#bfa599" d="M26.1 8.38c-.37.01-.75.02-1.14.02-2.08 0-4.04-.23-5.75-.63C19.3 7.58 19.4 7.39 19.5 7.2 21.43 7.9 23.69 8.32 26.1 8.38zM38.763 5.993c-2.035.795-4.447 1.289-7.055 1.354.38.01.76.02 1.15.02 2.183 0 4.224-.252 5.989-.687C38.832 6.449 38.801 6.22 38.763 5.993zM42.95 5.02c-.81.53-1.84 1-3.04 1.37-.05-.28-.11-.56-.13-.83.87-.41 1.65-.88 2.32-1.4C42.39 4.44 42.68 4.72 42.95 5.02z"/><path fill="#995b3f" d="M30,4.04V9.6C28.71,8.69,28,8,28,8V4.04c0-0.55,0.45-1,1-1S30,3.49,30,4.04z"/><path fill="#ffa180" d="M43,13.91v3c-6.02-0.06-10.69-2.68-13.13-4.41c-0.97-0.69-2.32-0.58-3.08,0.33C24.47,15.58,21,16.91,21,16.91
		v-3c0,0,5-1.91,7-5.91C28,8,34,13.82,43,13.91z"/><polygon fill="#5f605a" points="34 46 35 63 31.92 63 31.92 40.13 32 40 35 45 33.98 45.68"/><circle cx="48" cy="53" r="1" fill="#828282"/><path fill="#f7f7f7" d="M47.5,51.833c-0.643,0-0.645,1,0,1C48.143,52.833,48.145,51.833,47.5,51.833z"/><path fill="#a29292" d="M41,27.5c-0.019,0-0.037-0.001-0.056-0.003L32,26.503l-8.945,0.994c-0.278,0.029-0.521-0.168-0.552-0.441
			c-0.03-0.275,0.167-0.522,0.442-0.553L32,25.497l9.055,1.006c0.274,0.03,0.472,0.277,0.442,0.553
			C41.469,27.311,41.252,27.5,41,27.5z"/><path fill="#a29292" d="M43.169,23.387c-0.091,2.517-0.658,5.126-1.769,7.319c-0.08-0.109-0.2-0.187-0.345-0.203L32,29.497
		l-9.055,1.006c-0.274,0.03-0.472,0.277-0.442,0.553c0.031,0.273,0.274,0.47,0.552,0.441L32,30.503l8.945,0.994
		c0.006,0.001,0.012,0.001,0.018,0.001c-1.427,2.383-3.58,4.14-6.571,4.502H36c0.78,0,1.54-0.11,2.25-0.32
		C41.57,34.71,44,31.64,44,28v-3.1C43.965,24.275,43.643,23.732,43.169,23.387z"/><path fill="#7c4d4d" d="M27.081 19.443c-1.406 0-2.462-.516-2.528-.549-.494-.247-.694-.848-.447-1.342.247-.492.844-.692 1.337-.449.044.021 1.615.75 3.11.002.496-.246 1.095-.046 1.342.447.247.494.047 1.095-.447 1.342C28.624 19.306 27.806 19.443 27.081 19.443zM37.081 19.443c-1.406 0-2.462-.516-2.528-.549-.494-.247-.694-.848-.447-1.342.247-.492.845-.692 1.337-.449.044.021 1.615.75 3.11.002.496-.246 1.095-.046 1.342.447.247.494.047 1.095-.447 1.342C38.624 19.306 37.806 19.443 37.081 19.443z"/><path fill="#6b6669" d="M42.45,36.88c-1.14-0.44-2.36-0.75-3.61-0.92l-0.07-0.01l-0.42,0.01l0.36,0.99l0.37,1.03l0.02,0.05
		c0.91,0.16,1.8,0.39,2.63,0.72C45.03,40.02,47,41.8,47,43.5V50c0,0.06,0.01,0.12,0.02,0.17C47.32,50.06,47.66,50,48,50
		s0.68,0.06,0.98,0.17C48.99,50.12,49,50.06,49,50v-6.5C49,40.86,46.67,38.51,42.45,36.88z M25.2,36.16l-0.16,0.02
		c-1.63,0.29-3.15,0.81-4.51,1.54c-2.27,1.23-3.73,2.71-4.28,4.33C13.29,42.42,11,44.95,11,48c0,0.09,0.07,6.94,4.3,11.05
		c-0.96,0.48-2.09,0.82-3.4,0.95c-0.55,0.06-0.95,0.55-0.9,1.1c0.06,0.55,0.55,0.95,1.1,0.9c1.97-0.2,3.58-0.79,4.9-1.62
		c1.32,0.83,2.93,1.42,4.9,1.62H22c0.51,0,0.94-0.38,1-0.9c0.05-0.55-0.35-1.04-0.9-1.1c-1.31-0.13-2.44-0.47-3.4-0.95
		C22.93,54.94,23,48.09,23,48c0-2.83-1.98-5.21-4.62-5.83c0.52-0.95,1.59-1.87,3.1-2.69c1.01-0.55,2.14-0.95,3.34-1.21l0.1-0.29
		l0.3-0.82l0.36-1.01L25.2,36.16z M21,48c0,0.34-0.06,6.54-3.99,9.91C13.08,54.54,13,48.34,13,48c0-2.21,1.79-4,4-4S21,45.79,21,48z
		"/><path fill="#ffa180" d="M38.71,36.95l-0.46-1.27C37.54,35.89,36.78,36,36,36h-8c-0.023,0-0.044-0.005-0.067-0.005
		c1.87,1.473,4.75,1.576,6.252,3.381l4.895-1.396L38.71,36.95z"/></svg>