<svg xmlns="http://www.w3.org/2000/svg" width="32" height="32" viewBox="0 0 32 32"><g transform="translate(-210.34 -911.264)"><path fill="#cdd7e0" d="m 233.52943,938.32211 c 0.5858,0.5858 1.53556,0.5857 2.12135,-10e-5 0.58579,0.5858 1.53555,0.5858 2.12128,10e-5 0.30416,-0.3042 0.45359,-0.7065 0.442,-1.1049 0.55385,0.2551 1.22289,0.1471 1.67933,-0.3093 0.58577,-0.5858 0.58578,-1.5355 4e-5,-2.1214 -0.13909,-0.1392 -0.31559,-0.2365 -0.48607,-0.3095 0.3428,-0.5757 0.27453,-1.3165 -0.22098,-1.8119 -0.13908,-0.1392 -0.31557,-0.2365 -0.48605,-0.3095 0.34279,-0.5758 0.27447,-1.3165 -0.22098,-1.812 -0.5858,-0.5858 -1.53556,-0.5857 -2.12135,1e-4 -0.13908,0.1391 -0.23628,0.3156 -0.30932,0.4861 -0.57523,-0.3436 -1.31649,-0.2745 -1.81194,0.221 -0.13908,0.1391 -0.23628,0.3156 -0.30942,0.4861 -0.57522,-0.3437 -1.31647,-0.2745 -1.81194,0.2209 -0.58577,0.5858 -0.58578,1.5355 -4e-5,2.1214 0.13909,0.1392 0.31559,0.2365 0.48607,0.3095 -0.3428,0.5757 -0.27453,1.3165 0.22098,1.8119 0.13908,0.1392 0.31557,0.2365 0.48605,0.3095 -0.34279,0.5758 -0.27447,1.3165 0.22098,1.812 z"/><path fill="#ffdc7b" d="m 217.3916,918.77571 c 0,0 0,1.4755 0,2 0,1.8634 -5.03033,-0.4535 -5.03033,3.5 0,6.347 0,14.4887 0,14.4887 l 17.03125,0 c 0,0 0,-9.0545 0,-14.4722 0,-4.0546 -4.97319,-1.8168 -4.97319,-3.5165 0,-0.814 0,-2 0,-2 z"/><path fill="#fff099" d="m 217.37866,918.76441 0,2 c 0,1.8634 -5.03125,-0.4535 -5.03125,3.5 l 0,14.5 1.5,0 0,-13.5 c 0,-3.9535 5.03125,-2.1366 5.03125,-4 l 0,-2.5 z"/><path fill="#f9c441" d="m 224.36127,918.76441 0,2 c 0,1.8634 5.03125,-0.4535 5.03125,3.5 l 0,14.5 -1.5,0 0,-13.5 c 0,-3.9535 -5.03125,-2.1366 -5.03125,-4 l 0,-2.5 z"/><rect width="10.974" height="3.016" x="215.365" y="915.776" fill="#cdd7e0"/><path fill="none" d="m 212.34741,924.77571 17.02773,0"/><path fill="#ffb68f" d="m 212.34741,930.23311 0,8.5313 17.03125,0 0,-8.5"/><path fill="#ff5855" d="m 219.36127,927.82341 0,2.4688 -2.5,0 0,3.0312 2.5,0 0,2.4688 3.03125,0 0,-2.4688 2.46875,0 0,-3.0312 -2.46875,0 0,-2.4688 -3.03125,0 z"/><path fill="#ffc48f" d="m 212.34741,930.23316 0,8.53125 1.5,0 0,-8.53125 -1.5,0 z"/><path fill="#ff9e8f" d="m 227.87866,930.23321 0,8.5312 1.5,0 0,-8.5312 -1.5,0 z"/><path fill="none" d="m 217.3916,918.77571 c 0,0 0,1.4755 0,2 0,1.8634 -5.03033,-0.4535 -5.03033,3.5 0,6.347 0,14.4887 0,14.4887 l 17.03125,0 c 0,0 0,-9.0545 0,-14.4722 0,-4.0546 -4.97319,-1.8168 -4.97319,-3.5165 0,-0.814 0,-2 0,-2 z"/><path fill="#e5f1fa" d="M215.37866 915.76441l0 3.03125 1.46875 0 0-3.03125-1.46875 0zM217.84741 915.76441l0 3.0313 1 0 0-3.0313z"/><rect width="10.974" height="3.016" x="215.365" y="915.776" fill="none"/><path fill="none" stroke="#e5f1fa" stroke-linecap="round" stroke-linejoin="round" d="M238.30744 934.92041c.12672-.4464-.0524-.93-.47275-1.1727-.3066-.1765-.66507-.18-.9625-.04M235.14977 935.76441c-.12672.4464.0524.93.47275 1.1727.3066.1765.66507.18.9625.04M235.47336 932.58741c-.40285-.2303-.9153-.1726-1.2519.177"/></g></svg>